<svg width="34" height="34" viewBox="0 0 34 34" fill="none" xmlns="http://www.w3.org/2000/svg">
<rect width="33.4113" height="33.4113" rx="5.56856" fill="#F5F7FA"/>
<g clip-path="url(#clip0_211_2514)">
<path fill-rule="evenodd" clip-rule="evenodd" d="M7.02898 9.71809L0.078186 16.599C1.46847 17.9753 3.05666 19.1353 4.78824 20.0427C5.26686 21.2996 6.01707 22.4782 7.03888 23.4897C10.8832 27.2954 17.116 27.2954 20.9603 23.4897C21.9821 22.4782 22.7323 21.2996 23.2109 20.0427C24.9425 19.1353 26.5307 17.9753 27.921 16.599L20.9758 9.72369C20.9706 9.71855 20.9655 9.7134 20.9603 9.70827C17.116 5.90262 10.8832 5.90262 7.03888 9.70827C7.03559 9.71154 7.03228 9.71482 7.02898 9.71809ZM20.2952 21.2842C18.2696 21.9609 16.1433 22.3075 13.9996 22.3075C11.8559 22.3075 9.72961 21.9609 7.70404 21.2842C7.92352 21.5724 8.16582 21.849 8.43102 22.1116C11.5065 25.1561 16.4927 25.1561 19.5681 22.1116C19.8333 21.849 20.0757 21.5724 20.2952 21.2842ZM8.57378 10.9486C9.09604 11.2902 9.65137 11.5824 10.2324 11.8207C11.4268 12.3105 12.7068 12.5625 13.9996 12.5625C15.2923 12.5625 16.5724 12.3105 17.7667 11.8207C18.3478 11.5824 18.9031 11.2902 19.4254 10.9486C16.3883 8.08784 11.6108 8.08784 8.57378 10.9486Z" fill="#3B4158"/>
</g>
<defs>
<clipPath id="clip0_211_2514">
<rect width="27.8428" height="19.4899" fill="white" transform="translate(0.078186 6.85403)"/>
</clipPath>
</defs>
</svg>
