<svg width="39" height="34" viewBox="0 0 39 34" fill="none" xmlns="http://www.w3.org/2000/svg">
<rect width="33.4113" height="33.4113" rx="5.56856" fill="#F5F7FA"/>
<g clip-path="url(#clip0_211_2517)">
<path d="M38.2808 13.5848C38.2848 13.5558 38.2848 13.5264 38.2808 13.4974C38.2846 13.4737 38.2846 13.4496 38.2808 13.4259L37.9972 11.3846C37.9563 11.1404 37.8469 10.9121 37.6813 10.7253L37.6326 10.6697L37.5436 10.5824L32.6338 6.43616L32.7715 6.5712C32.6588 6.43903 32.5174 6.33331 32.3575 6.26183C32.1977 6.19035 32.0235 6.15492 31.8479 6.15817H30.3571C30.1147 6.15346 29.8778 6.22902 29.6846 6.37263C29.4818 6.22988 29.2376 6.15471 28.9879 6.15817H27.4971C27.3016 6.15506 27.1087 6.20263 26.938 6.29608C26.7673 6.38953 26.6248 6.52554 26.5249 6.69034C26.3709 6.92571 26.3131 7.20931 26.3628 7.48463L26.5492 8.77137C26.4257 8.70276 26.286 8.66717 26.1441 8.66813H18.9252C18.6662 8.66972 18.4132 8.74414 18.196 8.88258C17.9861 9.01143 17.8175 9.19593 17.7099 9.41474L17.1509 8.94612C16.9309 8.74653 16.6404 8.63835 16.3407 8.64429H5.01416C4.75424 8.64894 4.50009 8.72012 4.2769 8.85081C3.97156 9.02602 3.74778 9.31091 3.65304 9.64509L0.0557668 21.4403C-0.011447 21.6347 -0.018059 21.8443 0.0367777 22.0423C0.0916142 22.2403 0.205416 22.4179 0.363645 22.5523C0.404874 22.5866 0.448165 22.6184 0.493279 22.6476C0.493279 22.6476 0.42035 22.5999 0.37984 22.5603L5.28965 26.7144C5.49734 26.9019 5.76889 27.0066 6.05118 27.0082H17.4669C17.7276 27.0016 17.9819 26.9276 18.2042 26.7938C18.3299 26.7264 18.4423 26.6377 18.5363 26.5317L18.5769 26.4761L18.6417 26.3967L18.6903 26.3093L19.225 26.7621C19.4297 26.9421 19.6954 27.0411 19.9704 27.04H31.4103C31.6708 27.0315 31.9246 26.9577 32.1476 26.8256C32.2705 26.7541 32.3823 26.6658 32.4798 26.5635L32.5203 26.5079L32.5851 26.4285C32.6196 26.3782 32.6495 26.325 32.6742 26.2695C32.7007 26.2214 32.7224 26.1709 32.739 26.1187L36.0203 15.3481V15.2528C36.0244 15.2158 36.0244 15.1785 36.0203 15.1416V15.0701C36.0243 15.0464 36.0243 15.0223 36.0203 14.9986C36.024 14.9484 36.024 14.8979 36.0203 14.8477H37.0736C37.1652 14.8559 37.2574 14.8559 37.3491 14.8477H37.422C37.4813 14.8303 37.5384 14.8063 37.5922 14.7762H37.6732L37.819 14.665L37.8838 14.6173L37.9972 14.4744V14.4267L38.0783 14.2917C38.0737 14.2654 38.0737 14.2385 38.0783 14.2123C38.074 14.1994 38.074 14.1854 38.0783 14.1726C38.0955 14.126 38.109 14.0782 38.1188 14.0296C38.115 14.0139 38.115 13.9976 38.1188 13.9819C38.1148 13.9583 38.1148 13.9341 38.1188 13.9104C38.1188 13.9104 38.2808 13.6006 38.2808 13.5848Z" fill="black"/>
<path d="M16.6728 9.54985C16.7159 9.58798 16.7459 9.63812 16.7589 9.69351C16.772 9.7489 16.7674 9.80687 16.7458 9.85962L13.1566 21.6469C13.1114 21.7756 13.019 21.8832 12.8974 21.9487C12.7984 22.0136 12.6839 22.0519 12.5651 22.0599H1.15761C1.06019 22.0553 0.967892 22.0158 0.898343 21.9487C0.85697 21.9112 0.827933 21.8624 0.814943 21.8087C0.801953 21.7549 0.805611 21.6986 0.825429 21.6469L4.4227 9.85962C4.46415 9.7293 4.5537 9.61884 4.67386 9.54985C4.77444 9.48961 4.88843 9.45418 5.00604 9.44659H16.4136C16.5102 9.4475 16.6029 9.48442 16.6728 9.54985ZM10.7179 19.272L12.8649 12.2345H6.8533L4.71436 19.272H10.7179ZM27.5619 9.66898C27.6008 9.71333 27.6494 9.74849 27.7042 9.77187C27.7589 9.79525 27.8182 9.80624 27.8779 9.80401H29.3605C29.417 9.80456 29.4726 9.79098 29.5223 9.76458C29.5719 9.73817 29.6138 9.6998 29.6441 9.6531C29.6704 9.61662 29.689 9.57532 29.6987 9.53165C29.7085 9.48799 29.7092 9.44286 29.7008 9.39893L29.4091 7.30201C29.3814 7.20496 29.3315 7.11534 29.2633 7.03989C29.2243 6.99555 29.1757 6.96038 29.121 6.937C29.0663 6.91363 29.0069 6.90264 28.9473 6.90486H27.4647C27.4082 6.90432 27.3525 6.9179 27.3029 6.9443C27.2533 6.97071 27.2114 7.00907 27.1811 7.05578C27.1244 7.16698 27.1001 7.23846 27.1244 7.30201L27.4242 9.39893C27.4395 9.50104 27.4878 9.59565 27.5619 9.66898ZM32.2691 7.28612C32.2413 7.18907 32.1915 7.09945 32.1233 7.024C32.086 6.97982 32.0388 6.94467 31.9854 6.92125C31.932 6.89783 31.8739 6.88679 31.8154 6.88897H30.3246C30.2691 6.88742 30.2142 6.90063 30.1657 6.9272C30.1172 6.95377 30.077 6.99271 30.0492 7.03989C29.9953 7.11036 29.9719 7.19887 29.9844 7.28612L30.2841 9.38304C30.3029 9.48407 30.3507 9.57775 30.4219 9.6531C30.4615 9.69658 30.5103 9.73115 30.5648 9.75446C30.6194 9.77776 30.6783 9.78924 30.7378 9.78812H32.2286C32.284 9.78884 32.3386 9.77529 32.3869 9.7488C32.4353 9.72231 32.4757 9.68384 32.5041 9.63722C32.5323 9.60168 32.552 9.5604 32.5618 9.51642C32.5716 9.47244 32.5713 9.42687 32.5608 9.38304L32.2691 7.28612ZM26.2575 10.4633L26.1116 9.4307H18.9252C18.8124 9.4368 18.7032 9.47246 18.6092 9.53396C18.5495 9.56586 18.4976 9.61008 18.457 9.66356C18.4165 9.71704 18.3883 9.77851 18.3743 9.84373L17.7747 11.8136C17.7508 11.8628 17.7426 11.918 17.7513 11.9719C17.76 12.0258 17.7851 12.0758 17.8233 12.1154C17.8916 12.1784 17.9808 12.2151 18.0745 12.2187H26.8084L24.6614 19.2561H15.9518C15.8395 19.2586 15.7301 19.2916 15.6358 19.3514C15.5212 19.4227 15.4375 19.533 15.4009 19.6611L14.7932 21.631C14.7734 21.6815 14.7682 21.7365 14.7782 21.7897C14.7882 21.843 14.813 21.8925 14.8499 21.9328C14.9161 22 15.0059 22.0398 15.1011 22.044H26.541C26.6593 22.034 26.7734 21.9959 26.8732 21.9328C26.9928 21.8669 27.0826 21.7591 27.1244 21.631L30.4137 10.8604H26.7112C26.6524 10.8616 26.5941 10.8509 26.5397 10.829C26.4854 10.8071 26.4362 10.7746 26.3952 10.7333C26.3282 10.6613 26.2809 10.5739 26.2575 10.4792V10.4633Z" fill="white"/>
</g>
<defs>
<clipPath id="clip0_211_2517">
<rect width="38.2838" height="20.8821" fill="white" transform="translate(0 6.15796)"/>
</clipPath>
</defs>
</svg>
